<?xml version="1.0" encoding="iso-8859-1"?>
<!-- Generator: Adobe Illustrator 23.1.1, SVG Export Plug-In . SVG Version: 6.00 Build 0)  -->
<svg version="1.1" id="Layer_1" xmlns="http://www.w3.org/2000/svg" xmlns:xlink="http://www.w3.org/1999/xlink" x="0px" y="0px"
	 viewBox="0 0 360 360" style="enable-background:new 0 0 360 360;" xml:space="preserve">
<rect style="display:none;fill-rule:evenodd;clip-rule:evenodd;fill:#4E90CD;" width="360" height="360"/>
<g>
	<path style="fill-rule:evenodd;clip-rule:evenodd;fill:#4E90CD;" d="M127.01,227.571l-5.652-7.924
		c0.738-0.199,1.41-0.484,2.019-0.852c0.608-0.369,1.131-0.817,1.57-1.346c0.438-0.528,0.783-1.136,1.031-1.824
		c0.249-0.688,0.374-1.47,0.374-2.347c0-1.017-0.179-1.939-0.538-2.766c-0.359-0.827-0.872-1.525-1.54-2.093
		c-0.668-0.568-1.485-1.007-2.452-1.316c-0.967-0.309-2.048-0.464-3.244-0.464h-9.33v20.932h3.648v-7.296h4.62l5.159,7.296H127.01
		L127.01,227.571z M122.614,213.472c0,1.081-0.389,1.944-1.171,2.581c-0.777,0.643-1.829,0.962-3.15,0.962h-5.398v-7.057h5.368
		c1.381,0,2.452,0.294,3.21,0.887C122.236,211.434,122.614,212.311,122.614,213.472L122.614,213.472z M151.636,206.639h-3.648
		v12.051c0,1.934-0.474,3.389-1.416,4.366c-0.942,0.977-2.233,1.465-3.877,1.465c-1.665,0-2.965-0.508-3.907-1.525
		c-0.942-1.017-1.416-2.502-1.416-4.455v-11.902h-3.648v12.051c0,1.515,0.209,2.845,0.628,3.992
		c0.418,1.146,1.017,2.108,1.794,2.885c0.778,0.778,1.714,1.361,2.811,1.749c1.097,0.389,2.323,0.583,3.678,0.583
		c1.376,0,2.617-0.194,3.723-0.583c1.106-0.388,2.048-0.977,2.826-1.764c0.777-0.788,1.38-1.769,1.809-2.946
		c0.428-1.176,0.643-2.541,0.643-4.096V206.639L151.636,206.639z M177.459,206.639h-3.648v12.051c0,1.934-0.474,3.389-1.416,4.366
		c-0.942,0.977-2.233,1.465-3.877,1.465c-1.664,0-2.965-0.508-3.907-1.525c-0.942-1.017-1.415-2.502-1.415-4.455v-11.902h-3.648
		v12.051c0,1.515,0.209,2.845,0.628,3.992c0.418,1.146,1.016,2.108,1.794,2.885c0.777,0.778,1.714,1.361,2.811,1.749
		c1.097,0.389,2.323,0.583,3.678,0.583c1.376,0,2.617-0.194,3.723-0.583c1.106-0.388,2.048-0.977,2.826-1.764
		c0.777-0.788,1.38-1.769,1.809-2.946c0.428-1.176,0.643-2.541,0.643-4.096V206.639L177.459,206.639z M202.623,212.56v15.011h3.648
		v-20.932h-3.917l-6.37,9.898l-6.369-9.898h-3.917v20.932h3.648v-14.952l6.549,9.809h0.12L202.623,212.56z"/>
	<path style="fill-rule:evenodd;clip-rule:evenodd;fill:#4E90CD;" d="M126.173,245.064v15.011h3.648v-20.932h-3.917l-6.369,9.898
		l-6.369-9.898h-3.917v20.932h3.648v-14.952l6.549,9.808h0.12L126.173,245.064L126.173,245.064z M153.879,239.143h-15.49v20.932
		h15.639v-3.319h-11.991v-5.592h10.496v-3.319h-10.496v-5.382h11.842V239.143L153.879,239.143z M180.539,249.579
		c0-1.475-0.269-2.851-0.807-4.127c-0.538-1.276-1.301-2.382-2.288-3.319c-0.987-0.937-2.163-1.669-3.528-2.198
		c-1.366-0.528-2.866-0.793-4.501-0.793h-7.805v20.932h7.805c1.635,0,3.135-0.269,4.501-0.807c1.365-0.538,2.542-1.276,3.528-2.213
		c0.987-0.937,1.749-2.049,2.288-3.334C180.27,252.435,180.539,251.055,180.539,249.579L180.539,249.579z M176.681,249.639
		c0,1.042-0.175,1.999-0.523,2.866c-0.349,0.872-0.842,1.624-1.47,2.253c-0.628,0.633-1.395,1.121-2.293,1.475
		c-0.902,0.349-1.899,0.524-3,0.524h-4.137v-14.294h4.137c1.101,0,2.098,0.179,3,0.538c0.897,0.364,1.665,0.862,2.293,1.505
		c0.628,0.638,1.121,1.396,1.47,2.267C176.507,247.641,176.681,248.598,176.681,249.639L176.681,249.639z M188.39,239.143v20.932
		h3.648v-20.932H188.39L188.39,239.143z M211.67,238.994h-3.409l-9.21,21.081h3.768l2.153-5.054h9.898l2.123,5.054h3.888
		L211.67,238.994L211.67,238.994z M213.524,251.762h-7.206l3.588-8.373L213.524,251.762z"/>
</g>
<polygon style="fill-rule:evenodd;clip-rule:evenodd;fill:#1C242D;" points="108.311,202.991 111.959,202.991 111.959,125.427 
	242.959,125.427 242.959,256.427 223.591,256.427 223.591,260.075 246.606,260.075 246.606,121.779 108.311,121.779 "/>
</svg>
